/* XPM */
static char *_2e629c2fe364ba4a0737ceed963a238UnP6tBaBrKSQ2wR4[] = {
/* columns rows colors chars-per-pixel */
"56 56 202 2 ",
"   c None",
".  c #1E0000",
"X  c #240002",
"o  c #2B0103",
"O  c #2E0909",
"+  c #350001",
"@  c #3C0003",
"#  c #3F0608",
"$  c #310909",
"%  c #3C090A",
"&  c #3E1C14",
"*  c #420406",
"=  c #4D0002",
"-  c #420907",
";  c #440608",
":  c #440A0A",
">  c #4B0B0A",
",  c #4F0709",
"<  c #5C0104",
"1  c #530B0B",
"2  c #5C0B0B",
"3  c #550307",
"4  c #4D130E",
"5  c #4A170D",
"6  c #501A0F",
"7  c #491C13",
"8  c #511610",
"9  c #541B12",
"0  c #630B0B",
"q  c #6C0C0C",
"w  c #660407",
"e  c #7B0106",
"r  c #730C0C",
"t  c #7C0C0D",
"y  c #770406",
"u  c #671A13",
"i  c #4D2817",
"p  c #4F2A18",
"a  c #572314",
"s  c #5A2216",
"d  c #5A2816",
"f  c #5D2618",
"g  c #5D2919",
"h  c #58331C",
"j  c #622C1B",
"k  c #64321D",
"l  c #69351F",
"z  c #67381E",
"x  c #5B3921",
"c  c #693720",
"v  c #653B20",
"b  c #6D3C23",
"n  c #673420",
"m  c #753C24",
"M  c #674627",
"N  c #724226",
"B  c #754528",
"V  c #754B2A",
"C  c #7A4C2B",
"Z  c #744826",
"A  c #7D522D",
"S  c #74512D",
"D  c #6A4F30",
"F  c #7C5E34",
"G  c #795630",
"H  c #830D0D",
"J  c #8D0E0E",
"K  c #860308",
"L  c #940E0E",
"P  c #9B0E0E",
"I  c #9D0108",
"U  c #971712",
"Y  c #8A1712",
"T  c #A30E0E",
"R  c #AB0E0E",
"E  c #AB060B",
"W  c #B20F0F",
"Q  c #B40C0D",
"!  c #BA0E0F",
"~  c #B0070B",
"^  c #AC1914",
"/  c #B31110",
"(  c #BD1010",
")  c #862519",
"_  c #9C311F",
"`  c #A2321F",
"'  c #A92319",
"]  c #983521",
"[  c #A43A23",
"{  c #CD0D0F",
"}  c #C30D0E",
"|  c #C90F10",
" . c #D60F10",
".. c #D90E10",
"X. c #C11010",
"o. c #C51010",
"O. c #C71010",
"+. c #C91010",
"@. c #CA1010",
"#. c #CD1010",
"$. c #D01111",
"%. c #D21011",
"&. c #D61111",
"*. c #DB1212",
"=. c #D10C0E",
"-. c #E21111",
";. c #E61111",
":. c #E91212",
">. c #EB1212",
",. c #EA1112",
"<. c #ED1212",
"1. c #F21212",
"2. c #F11212",
"3. c #F51313",
"4. c #F91313",
"5. c #FF1313",
"6. c #FE1313",
"7. c #FC1313",
"8. c #FF1414",
"9. c #854327",
"0. c #80532F",
"q. c #835730",
"w. c #855A32",
"e. c #895E34",
"r. c #9A482A",
"t. c #A0522F",
"y. c #A95832",
"u. c #8C6236",
"i. c #8E6538",
"p. c #8C6A3A",
"a. c #856B3D",
"s. c #906738",
"d. c #946C3B",
"f. c #9B6639",
"g. c #8E713E",
"h. c #95713D",
"j. c #99733F",
"k. c #AA733F",
"l. c #8A7342",
"z. c #9A7641",
"x. c #9D7A42",
"c. c #967842",
"v. c #A27E44",
"b. c #AA7942",
"n. c #B47A43",
"m. c #9A844A",
"M. c #9B8246",
"N. c #9F8D53",
"B. c #A48246",
"V. c #A68548",
"C. c #A88648",
"Z. c #A68D4C",
"A. c #AD8C4B",
"S. c #AC914D",
"D. c #B2924E",
"F. c #AC9652",
"G. c #AB9954",
"H. c #B49651",
"J. c #B59952",
"K. c #BA9C54",
"L. c #B78E4D",
"P. c #BDA156",
"I. c #BEAA5B",
"U. c #B8A357",
"Y. c #B9AB61",
"T. c #B7A961",
"R. c #C49D54",
"E. c #C0A457",
"W. c #C1A659",
"Q. c #C4AC5B",
"!. c #C8AC5C",
"~. c #CAB25E",
"^. c #C4AE65",
"/. c #C7B560",
"(. c #CDB661",
"). c #CDBB62",
"_. c #D3BC63",
"`. c #D2B660",
"'. c #CBC06C",
"]. c #D3C569",
"[. c #DAC669",
"{. c #D9C568",
"}. c #DED26F",
"|. c #CFC570",
" X c #D0C670",
".X c #DCD273",
"XX c #DDD379",
"oX c #DED87C",
"OX c #E4D26E",
"+X c #EBDC74",
"@X c #E2D672",
"#X c #EFE076",
"$X c #EEE77A",
"%X c #F3E679",
"&X c #F6EA7A",
"*X c #FBF17E",
"=X c #ECE885",
"-X c #FEFD88",
";X c #FFFE93",
":X c #FFFF9C",
">X c #FFFFA5",
",X c #FFFFA9",
/* pixels */
"                                                                                                                ",
"                      > : > > > , 1 1 1 1 1 1 > > > > : : : > , > 1 1 1 1 1 1 , > > > > :                       ",
"                      > > : > > , 1 1 1 1 1 1 > > > : : : > > > > 1 1 1 1 1 1 1 > > : > >                       ",
"                      > > > 1 2 0 q q r q r 0 2 1 , : : % : > , 2 0 q q r q q 0 2 1 > > >                       ",
"                      > > > 2 q t J P L P L H r 0 1 : : % : > 2 r t J P P L J H q 2 , > >                       ",
"                      > 1 > 0 H P W o.o.o.! T J r 1 : $ $ : 1 q H P ! o.o.o.! P H q 1 1 1                       ",
"                      1 1 1 r J W $.-.:.:.*.X.P t 2 : $ O % 1 r P ! &.:.:.:.&.! P r 2 > 1                       ",
"                      1 1 1 r P ( -.8.8.8.2.$.W H 2 % $ O % 2 t T +.:.5.5.8.<.#.T t 2 1 1                       ",
"                      1 1 2 r P +.<.8.8.8.4.*.W J 2 % O O % 1 t R #.3.8.8.8.3.$.R t 2 1 1                       ",
"                      1 1 1 r T +.<.8.8.8.4.*.W H 0 : O O % 2 t R $.3.8.8.8.3.$.R t 2 1 1                       ",
"                      1 1 1 r P o.,.5.5.8.4.&.W J 0 % O O % 1 t T #.2.6.5.5.2.#.T t 2 1 1                       ",
"                      1 1 1 r P X.;.8.8.8.2.$.R H 2 : O O % 2 t T @.<.6.5.5.:.@.T t 2 1 1                       ",
"                      1 1 1 r P ( -.7.7.8.<.$.R H 0 % $ O % 1 t T o.:.6.8.8.>.@.T t 2 4 1                       ",
"                      1 1 1 r P X.-.7.7.8.2.$.W H 2 : $ O % 1 t T o.:.6.6.8.>.o.T t 2 1 1                       ",
"                      1 1 1 r P X.;.7.7.8.2.#.R H 2 % $ O % 1 t T o.:.6.6.6.>.@.T t 2 1 1                       ",
"                      1 1 1 r P o.,.7.7.8.2.$.W H 2 - O O # 1 t T @.:.6.6.6.<.@.T t 2 1 1                       ",
"                      1 1 1 t P +.<.7.7.5.2.$.R H 2 : $ O % 1 t T o.:.5.5.5.3.=.R H 2 1 1                       ",
"                      1 1 1 r T +.<.7.7.5.2.$.R H 2 % $ O % 1 t T o.:.5.5.5.3.$.R t 2 1 1                       ",
"                      1 1 2 r P o.;.7.7.5.2.$.R H 0 % O O % 1 t T o.:.5.5.5.<.#.T t 2 1 1                       ",
"                      > 1 1 q L / ..1.7.5.2. .R H < @ o o + , t T { <.8.7.3.*.( P r 1 1 1                       ",
"                      > > > 0 t P X.*.<.4.2. .~ K 3 + X . o = e E { <.4.2.-.o.T J q 1 > >                       ",
"                      > > > 2 q H P ( ..<.<...Q K 3 + . . o = e E =.:.<.*.o.T H q 1 > > >                       ",
"                      : : > > 1 0 t P ! *.-. .Q K < $ o X + 3 K R =.-.*.o.T H q 2 > > : >                       ",
"                      : : : : : > 2 t P ! { O.W U u 9 & & 7 u Y R O.{ O.T H 0 > : % > : :                       ",
"                      : : : % % # > w e I E / ^ _ 9.A D D S 9.] ' / Q E K w , % % % : : :                       ",
"                            % % % # = < y K U _ y.b.N.N.N.Z.b.y.[ U K e w = * % % % :                           ",
"                              % % % * = < w Y r.n.R.`.).|.'.^.n.y.) r < = * @ % %                               ",
"                              # # @ @ * , u m f.L.`.@XXXoX@X_.R.f.B u 1 * * @ * %                               ",
"                              @ @ @ - 5 d M w.x.H.~.'.|.|.].(.K.M.u.N d 7 : @ @ @                               ",
"                            @ @ @ @ 4 h S a.M.Z.F.J.J.G.G.F.H.F.S.M.g.G v 6 * + @ @                             ",
"                      ; * ; @ + + * g G c.G.U.J.Z.j.u.F F w.d.V.G.U.G.M.w.h > @ + @ * * ;                       ",
"                      ; * ; @ @ * 6 N h.J././.U.M.q.n p x n C z.U.~.).U.x.C s ; @ @ * * *                       ",
"                      : : ; > 5 9 l e.C.Q.`.~.P.j.A j p i d Z d.H.~._.Q.A.s.m 9 6 > : * :                       ",
"                      > > 4 a k Z e.j.D.P.Q.P.S.j.s.A M D V e.z.C.K.W.I.H.v.u.C z a 4 > >                       ",
"                      8 8 8 k A j.C.D.D.A.C.k.v.x.B.C.M.m.B.B.v.v.v.B.A.D.D.A.v.w.b 9 5 8                       ",
"                      9 9 9 Z c.K.~.!.D.j.e.F s.C.Q.].'.'.].!.D.d.w.w.d.A.E.~.E.B.A g 9 9                       ",
"                      9 s s w.D.{.OX`.A.e.l l q.A.[.-X;X-X-XOXK.u.b l 0.B.~.OX[.K.s.k 9 s                       ",
"                      s s f i.P.+X%X[.A.C a 9 C D.+X;X>X>X:X&XE.e.f 9 b v.`.%X+X(.j.c s s                       ",
"                      f f g s.W.#X&X[.A.C 9 9 C D.#X;X>X>X:X-XE.q.s 8 b v._.&X%X(.z.c f s                       ",
"                      s s f u.K.OX#X{.A.0.f j C D.OX;X:X:X;X+XK.e.j s B B.`.+X+X!.d.n s s                       ",
"                      9 9 s 0.C.~.[.~.D.u.B N e.A._.$X=X=X$X[.H.s.B N e.C.!.{._.H.e.g 9 9                       ",
"                      9 9 9 N p.A.E.E.D.v.d.s.j.B.D.I.T.T.I.K.C.j.s.s.x.D.K.P.D.h.B a 6 9                       ",
"                      4 4 4 g Z e.j.A.D.H.D.A.C.v.j.d.a.a.p.j.x.C.A.D.H.D.A.v.i.C k 9 4 4                       ",
"                      > : > 6 a k C d.A.W.~.!.H.j.q.b x x c 0.d.D.E.~.!.D.j.0.l d 8 > > >                       ",
"                      : ; ; - : > g A B.W._._.K.v.C j a i a B h.J.~.{.Q.C.w.k 8 : : ; : ;                       ",
"                      * * * @ @ @ 4 z i.D.W.~.P.B.u.N M M M w.x.K.!.~.H.h.N 8 @ + @ * * *                       ",
"                      * * * @ + @ * a Z d.C.H.K.D.B.c.l.l.h.v.A.H.K.A.j.A g * @ + @ * ; *                       ",
"                            @ @ @ @ > d b w.j.C.H.I.I.T.T.^.W.K.A.j.e.N g 5 * + @ @                             ",
"                              * * * * : 6 j C h.H.`.}.XXXX.X_.K.j.q.l 9 > # @ * *                               ",
"                                : * @ @ @ > j q.V.^.}.XXXX}.(.H.u.l 4 @ @ @ * ;                                 ",
"                                  ; @ + + * 8 b i.S.^.^.^.^.H.d.B a * + + @ *                                   ",
"                                    @ @ @ @ > g m w.c.z.z.z.e.B j 4 * @ @ @                                     ",
"                                      * @ * : 4 s n c b b b k s 8 > * * @                                       ",
"                                        * ; > > 8 9 9 f s s 9 9 4 : ; * *                                       ",
"                                        * * : > 8 9 s s 9 s 9 9 > > : * *                                       ",
"                                                                                                                "
};
