/* XPM */
static char *result[] = {
/* columns rows colors chars-per-pixel */
"56 56 197 2 ",
"   c #1E0000",
".  c #240002",
"X  c #2B0103",
"o  c #2E0909",
"O  c #350001",
"+  c #3C0003",
"@  c #3F0608",
"#  c #310909",
"$  c #3C090A",
"%  c #3E1C14",
"&  c #420406",
"*  c #4D0002",
"=  c #420907",
"-  c #440608",
";  c #440A0A",
":  c #4B0B0A",
">  c #4F0709",
",  c #530105",
"<  c #5C0104",
"1  c #530B0B",
"2  c #5C0B0B",
"3  c #580508",
"4  c #4D130E",
"5  c #4C1A0E",
"6  c #47110A",
"7  c #501A0F",
"8  c #491C13",
"9  c #511610",
"0  c #541B12",
"q  c #630305",
"w  c #6A0509",
"e  c #630B0B",
"r  c #6C0C0C",
"t  c #7B0106",
"y  c #730C0C",
"u  c #7C0C0D",
"i  c #770406",
"p  c #671A13",
"a  c #4D2817",
"s  c #4F2A18",
"d  c #572314",
"f  c #5A2216",
"g  c #5A2816",
"h  c #5D2618",
"j  c #5D2919",
"k  c #58331C",
"l  c #622C1B",
"z  c #64321D",
"x  c #69351F",
"c  c #67381E",
"v  c #5B3921",
"b  c #693720",
"n  c #653B20",
"m  c #6D3C23",
"M  c #673420",
"N  c #753C24",
"B  c #614225",
"V  c #6B4829",
"C  c #724226",
"Z  c #744826",
"A  c #754528",
"S  c #754B2A",
"D  c #7A4C2B",
"F  c #7D522D",
"G  c #74512D",
"H  c #6A4F30",
"J  c #7C5E34",
"K  c #795630",
"L  c #850207",
"P  c #820509",
"I  c #830D0D",
"U  c #8D0E0E",
"Y  c #8A0309",
"T  c #940E0E",
"R  c #9B0E0E",
"E  c #9D0108",
"W  c #971712",
"Q  c #8A1712",
"!  c #A30E0E",
"~  c #AB0E0E",
"^  c #AB060B",
"/  c #B30D0E",
"(  c #BA0E0F",
")  c #B0070B",
"_  c #AC1914",
"`  c #B31110",
"'  c #BD1010",
"]  c #862519",
"[  c #9C311F",
"{  c #A2321F",
"}  c #A92319",
"|  c #983521",
" . c #A43A23",
".. c #CD0D0F",
"X. c #C30D0E",
"o. c #D10C0E",
"O. c #C90F10",
"+. c #D60F10",
"@. c #D90E10",
"#. c #C41010",
"$. c #CA1010",
"%. c #D21111",
"&. c #DB1212",
"*. c #E41111",
"=. c #EB1212",
"-. c #F31212",
";. c #FE1313",
":. c #854327",
">. c #80532F",
",. c #835730",
"<. c #855A32",
"1. c #895E34",
"2. c #9A482A",
"3. c #A0522F",
"4. c #A95832",
"5. c #8C6236",
"6. c #8E6538",
"7. c #8C6A3A",
"8. c #856B3D",
"9. c #906738",
"0. c #946C3B",
"q. c #9B6639",
"w. c #8E713E",
"e. c #95713D",
"r. c #99733F",
"t. c #AA733F",
"y. c #8A7342",
"u. c #9A7641",
"i. c #9D7A42",
"p. c #967842",
"a. c #A27E44",
"s. c #AA7942",
"d. c #B47A43",
"f. c #9A844A",
"g. c #9B8246",
"h. c #9F8D53",
"j. c #A48246",
"k. c #A68548",
"l. c #A88648",
"z. c #A68D4C",
"x. c #AD8C4B",
"c. c #B78E4D",
"v. c #AC914D",
"b. c #B2924E",
"n. c #AC9652",
"m. c #AB9954",
"M. c #B49651",
"N. c #B59952",
"B. c #BA9C54",
"V. c #B5A357",
"C. c #BDA156",
"Z. c #BEAA5B",
"A. c #BFA458",
"S. c #B9AB61",
"D. c #B7A961",
"F. c #C49D54",
"G. c #C0A457",
"H. c #C1A659",
"J. c #C4AC5B",
"K. c #C8AF5D",
"L. c #C8A659",
"P. c #CAB25E",
"I. c #C4AE65",
"U. c #C7B560",
"Y. c #CDB661",
"T. c #CDBB62",
"R. c #D3BC63",
"E. c #D2B660",
"W. c #CBC06C",
"Q. c #D5C366",
"!. c #D3C569",
"~. c #DAC669",
"^. c #DCC769",
"/. c #DED26F",
"(. c #CFC570",
"). c #D0C670",
"_. c #DCD273",
"`. c #DDD379",
"'. c #DED87C",
"]. c #E4D26E",
"[. c #E4D671",
"{. c #EBDC74",
"}. c #E0D874",
"|. c #EFE076",
" X c #EEE77A",
".X c #F3E679",
"XX c #F7EB7B",
"oX c #F5E979",
"OX c #FBF17E",
"+X c #ECE885",
"@X c #FEFC85",
"#X c #FFFF8E",
"$X c #FFFE93",
"%X c #FFFF9C",
"&X c #FFFFA5",
"*X c #FFFFA9",
"=X c None",
/* pixels */
"=X=X=X=X=X=X=X=X=X=X=X=X=X=X=X=X=X=X=X=X=X=X=X=X=X=X=X=X=X=X=X=X=X=X=X=X=X=X=X=X=X=X=X=X=X=X=X=X=X=X=X=X=X=X=X=X",
"=X=X=X=X=X=X=X=X=X=X=X: ; : : : > 1 1 1 1 1 1 : : : ; ; ; : : : > 1 1 1 1 1 1 : : > ; : : =X=X=X=X=X=X=X=X=X=X=X",
"=X=X=X=X=X=X=X=X=X=X=X: : ; : : > 1 1 1 1 1 1 : : : ; ; ; ; ; : : : 1 1 1 1 1 1 : : : ; : =X=X=X=X=X=X=X=X=X=X=X",
"=X=X=X=X=X=X=X=X=X=X=X: : : 1 2 e r r y y r e e 1 > ; ; ; ; : 1 2 e r y y r r e 2 1 > : : =X=X=X=X=X=X=X=X=X=X=X",
"=X=X=X=X=X=X=X=X=X=X=X: : : 2 r u U T R R T I y e 1 ; $ $ ; > 2 y I U R R R T u r e : : : =X=X=X=X=X=X=X=X=X=X=X",
"=X=X=X=X=X=X=X=X=X=X=X: 1 1 e u T ` #.#.#.( ! U r 1 ; $ # ; 1 r I R ` #.#.#.` ! I r 1 1 1 =X=X=X=X=X=X=X=X=X=X=X",
"=X=X=X=X=X=X=X=X=X=X=X1 1 1 y U ` ..*.=.=.&.' R u 2 ; # # $ 1 y T ' %.=.=.=.&.` T y 2 : 1 =X=X=X=X=X=X=X=X=X=X=X",
"=X=X=X=X=X=X=X=X=X=X=X1 1 1 y R #.*.;.;.;.-.%.~ I e $ # # $ 1 u ! #.=.;.;.;.=.$.! u 2 1 1 =X=X=X=X=X=X=X=X=X=X=X",
"=X=X=X=X=X=X=X=X=X=X=X1 1 2 y R $.=.;.;.;.;.&.` I e ; o o # 2 u ~ $.-.;.;.;.;.$.~ u 2 1 1 =X=X=X=X=X=X=X=X=X=X=X",
"=X=X=X=X=X=X=X=X=X=X=X1 1 1 y ! $.=.;.;.;.;.%./ I e $ o o $ 2 u ~ %.;.;.;.;.-.%.~ u 2 1 1 =X=X=X=X=X=X=X=X=X=X=X",
"=X=X=X=X=X=X=X=X=X=X=X1 1 1 y R $.=.;.;.;.-.%.` I e ; o o $ 1 u ! $.-.;.;.;.-.$.! u 2 1 1 =X=X=X=X=X=X=X=X=X=X=X",
"=X=X=X=X=X=X=X=X=X=X=X1 1 1 y R #.*.;.;.;.-.%.~ I e $ # o $ 2 u ! $.=.;.;.;.=.$.! u 2 1 1 =X=X=X=X=X=X=X=X=X=X=X",
"=X=X=X=X=X=X=X=X=X=X=X1 1 1 y R ' *.-.;.;.-.$.~ I e $ # o $ 1 u ! #.=.;.;.;.=.#.! u 2 4 1 =X=X=X=X=X=X=X=X=X=X=X",
"=X=X=X=X=X=X=X=X=X=X=X1 1 1 y R ' *.;.;.;.=.%.` I 2 ; # o $ 1 u ! #.=.;.;.;.=.$.! u 2 1 1 =X=X=X=X=X=X=X=X=X=X=X",
"=X=X=X=X=X=X=X=X=X=X=X1 1 1 y R #.*.;.;.;.-.$.~ I 2 $ # o $ 1 u ! #.=.;.;.;.=.$.! u 2 1 1 =X=X=X=X=X=X=X=X=X=X=X",
"=X=X=X=X=X=X=X=X=X=X=X1 1 1 y R #.*.;.;.;.-.%.` I 2 = o o @ 1 u ! #.=.;.;.;.=.$.! u 2 1 1 =X=X=X=X=X=X=X=X=X=X=X",
"=X=X=X=X=X=X=X=X=X=X=X1 1 1 u R $.=.;.;.;.-.+.~ I 2 ; o o $ 1 u R $.=.;.;.;.-.%.~ u 2 1 1 =X=X=X=X=X=X=X=X=X=X=X",
"=X=X=X=X=X=X=X=X=X=X=X1 1 1 y ! $.=.;.;.;.-.$.~ I 2 $ # o $ 1 u ! X.=.;.;.;.-.%.~ I 2 1 1 =X=X=X=X=X=X=X=X=X=X=X",
"=X=X=X=X=X=X=X=X=X=X=X1 1 2 y R #.*.;.;.;.-.%.~ I e @ o o $ 1 u R ..=.;.;.;.=.$.~ u 2 1 1 =X=X=X=X=X=X=X=X=X=X=X",
"=X=X=X=X=X=X=X=X=X=X=X: 1 1 r T ` %.-.;.;.-.+.~ I 3 + X X O , u ! ..=.;.;.-.*.' R y 1 1 1 =X=X=X=X=X=X=X=X=X=X=X",
"=X=X=X=X=X=X=X=X=X=X=X: : : e u ! ' &.=.;.=.@.) L 3 O     X , i ^ ..=.;.=.=.#.! I r 1 : : =X=X=X=X=X=X=X=X=X=X=X",
"=X=X=X=X=X=X=X=X=X=X=X: : : 2 r u R ' &.=.=.@.) L , O     X * t ^ o.=.=.&.#.! I r 2 > : : =X=X=X=X=X=X=X=X=X=X=X",
"=X=X=X=X=X=X=X=X=X=X=X: ; : : 1 e u R ( &.*.+./ Y 3 @ X X O , P ~ o.*.&.#.! I r 1 : ; : ; =X=X=X=X=X=X=X=X=X=X=X",
"=X=X=X=X=X=X=X=X=X=X=X; ; ; ; ; : 2 u ! ( ..O.` W p 8 % % 8 p Q _ #.o.X.! I e : ; ; ; ; ; =X=X=X=X=X=X=X=X=X=X=X",
"=X=X=X=X=X=X=X=X=X=X=X; ; ; $ $ $ : q t E ^ / _ { | F H H G :.| } ( ) ^ L q > $ $ $ ; ; ; =X=X=X=X=X=X=X=X=X=X=X",
"=X=X=X=X=X=X=X=X=X=X=X=X=X=X$ $ $ @ * < i Y W { 4.a.h.h.h.h.s.4.2.W Y t q , & $ $ $ ; =X=X=X=X=X=X=X=X=X=X=X=X=X",
"=X=X=X=X=X=X=X=X=X=X=X=X=X=X=X$ $ @ & * < w ] 2.d.F.T.T.(.W.L.d.3.] y < * & + $ $ =X=X=X=X=X=X=X=X=X=X=X=X=X=X=X",
"=X=X=X=X=X=X=X=X=X=X=X=X=X=X=X@ $ + + & * p N 9.c.Y.[.'.'.}.R.F.q.:.p : - & + & $ =X=X=X=X=X=X=X=X=X=X=X=X=X=X=X",
"=X=X=X=X=X=X=X=X=X=X=X=X=X=X=X+ + + = 5 g m <.i.N.U.!.(.(.!.Y.B.j.5.C j 5 ; + + + =X=X=X=X=X=X=X=X=X=X=X=X=X=X=X",
"=X=X=X=X=X=X=X=X=X=X=X=X=X=X+ + + + 4 k K 8.g.z.M.M.n.m.m.n.M.M.v.g.w.G B 9 & O + + =X=X=X=X=X=X=X=X=X=X=X=X=X=X",
"=X=X=X=X=X=X=X=X=X=X=X& & & + O O ; h F p.m.V.N.z.u.5.J J 1.y.k.V.V.N.g.<.k : + O + & & - =X=X=X=X=X=X=X=X=X=X=X",
"=X=X=X=X=X=X=X=X=X=X=X- - - + + & 5 C e.N.U.U.V.i.,.M s v l D u.m.P.T.V.i.D d - + + & - - =X=X=X=X=X=X=X=X=X=X=X",
"=X=X=X=X=X=X=X=X=X=X=X; ; - ; 5 0 c 1.l.H.R.P.C.r.F l s a g S e.b.P.R.K.b.6.m d 4 : - ; - =X=X=X=X=X=X=X=X=X=X=X",
"=X=X=X=X=X=X=X=X=X=X=X: : 4 0 z Z 1.t.v.A.H.B.b.r.9.F V H S ,.r.x.B.G.Z.M.a.5.D c d 4 6 : =X=X=X=X=X=X=X=X=X=X=X",
"=X=X=X=X=X=X=X=X=X=X=X9 9 4 z F r.l.b.b.v.l.a.a.j.j.j.f.f.j.j.a.a.a.j.x.b.b.x.u.<.m 0 4 9 =X=X=X=X=X=X=X=X=X=X=X",
"=X=X=X=X=X=X=X=X=X=X=X0 0 0 S i.B.P.J.b.r.<.,.9.j.H.!.W.W.Q.K.v.e.,.,.0.x.L.P.G.j.F g 0 0 =X=X=X=X=X=X=X=X=X=X=X",
"=X=X=X=X=X=X=X=X=X=X=X0 d d <.M.Q.].E.x.<.x x >.b.~.@X#X$X@X].B.5.m z F j.P.].^.B.9.l d d =X=X=X=X=X=X=X=X=X=X=X",
"=X=X=X=X=X=X=X=X=X=X=Xf f j 5.G.{.oX^.x.D f f D b.{.$X&X&X%XXXC.>.l 0 C a.R..X{.Y.u.b f f =X=X=X=X=X=X=X=X=X=X=X",
"=X=X=X=X=X=X=X=X=X=X=Xh h h 9.L.|.XX^.x.D 0 0 D b.|.$X*X*X%XOXA.<.f 9 N a.R.oX.XE.u.M f h =X=X=X=X=X=X=X=X=X=X=X",
"=X=X=X=X=X=X=X=X=X=X=Xf d h 1.B.].|.~.x.>.f l D x.].#X%X%X$X.XC.1.l f A a.E.{.{.L.0.x f f =X=X=X=X=X=X=X=X=X=X=X",
"=X=X=X=X=X=X=X=X=X=X=X0 f 0 ,.l.P.^.E.b.5.A C 1.x.R.|.+X+X X~.M.6.A C 5.l.K.~.R.M.1.l 0 0 =X=X=X=X=X=X=X=X=X=X=X",
"=X=X=X=X=X=X=X=X=X=X=X9 0 0 m 7.x.B.C.b.a.0.9.r.k.M.Z.D.D.Z.B.l.r.7.7.t.x.B.C.b.e.A f 9 0 =X=X=X=X=X=X=X=X=X=X=X",
"=X=X=X=X=X=X=X=X=X=X=X9 4 4 l Z 1.i.x.b.M.b.x.k.i.u.7.y.y.5.u.i.k.x.b.N.b.x.a.6.D z 9 9 4 =X=X=X=X=X=X=X=X=X=X=X",
"=X=X=X=X=X=X=X=X=X=X=X: : : 5 d z D 0.x.H.P.K.M.u.,.b v v n D 0.x.G.P.K.b.r.>.x g 7 : ; : =X=X=X=X=X=X=X=X=X=X=X",
"=X=X=X=X=X=X=X=X=X=X=X; - - = ; : l F a.L.R.E.G.u.D l a a g A u.B.P.Q.K.l.<.z 4 ; = - - ; =X=X=X=X=X=X=X=X=X=X=X",
"=X=X=X=X=X=X=X=X=X=X=X& - & + O + 6 b 6.x.J.U.B.l.5.A B B m <.i.B.K.P.b.e.C 0 + + + + - - =X=X=X=X=X=X=X=X=X=X=X",
"=X=X=X=X=X=X=X=X=X=X=X& & & + O + & 0 Z 0.l.M.B.b.j.u.y.y.p.a.x.N.B.x.r.F h - O O O & - - =X=X=X=X=X=X=X=X=X=X=X",
"=X=X=X=X=X=X=X=X=X=X=X=X=X=X+ + + + 6 g C ,.r.l.M.C.J.S.S.J.H.B.x.r.1.C j 4 & + + + =X=X=X=X=X=X=X=X=X=X=X=X=X=X",
"=X=X=X=X=X=X=X=X=X=X=X=X=X=X=X& & & & ; 7 l D e.N.E._._.`._.R.B.r.>.l 0 6 & + & & =X=X=X=X=X=X=X=X=X=X=X=X=X=X=X",
"=X=X=X=X=X=X=X=X=X=X=X=X=X=X=X=X; & + + + : l >.l.I._.`.`._.Y.b.5.x 4 & + + & ; =X=X=X=X=X=X=X=X=X=X=X=X=X=X=X=X",
"=X=X=X=X=X=X=X=X=X=X=X=X=X=X=X=X=X- + O O & 0 m 6.x.I.I.I.I.b.r.A f & O O + & =X=X=X=X=X=X=X=X=X=X=X=X=X=X=X=X=X",
"=X=X=X=X=X=X=X=X=X=X=X=X=X=X=X=X=X=X+ + + + 4 f N ,.p.u.u.u.1.A l 4 & + + + =X=X=X=X=X=X=X=X=X=X=X=X=X=X=X=X=X=X",
"=X=X=X=X=X=X=X=X=X=X=X=X=X=X=X=X=X=X=X& + & ; 9 0 M m m m m z h 9 : & & + =X=X=X=X=X=X=X=X=X=X=X=X=X=X=X=X=X=X=X",
"=X=X=X=X=X=X=X=X=X=X=X=X=X=X=X=X=X=X=X=X& - ; : 0 0 0 h f f 0 9 4 ; - - - =X=X=X=X=X=X=X=X=X=X=X=X=X=X=X=X=X=X=X",
"=X=X=X=X=X=X=X=X=X=X=X=X=X=X=X=X=X=X=X=X& - : : 0 0 0 h f 0 0 9 : : - & & =X=X=X=X=X=X=X=X=X=X=X=X=X=X=X=X=X=X=X",
"=X=X=X=X=X=X=X=X=X=X=X=X=X=X=X=X=X=X=X=X=X=X=X=X=X=X=X=X=X=X=X=X=X=X=X=X=X=X=X=X=X=X=X=X=X=X=X=X=X=X=X=X=X=X=X=X"
};
