/* XPM */
static char *caa23f4da8d149349393a1968eb807811ZsrwPP09PiNQ7zW[] = {
/* columns rows colors chars-per-pixel */
"56 56 80 1 ",
"  c #010202",
". c #030608",
"X c #060A0E",
"o c #070B11",
"O c #0A0E15",
"+ c #0B0F18",
"@ c #0A1017",
"# c #0D121C",
"$ c #0F1521",
"% c #101623",
"& c #111826",
"* c #141C2B",
"= c #161F30",
"- c #172032",
"; c #192235",
": c #1B253A",
"> c #1D283E",
", c #1D283F",
"< c #1D2940",
"1 c #1E2940",
"2 c #1E2A42",
"3 c #1E2B43",
"4 c #1F2C45",
"5 c #202C44",
"6 c #202C45",
"7 c #202D46",
"8 c #212E47",
"9 c #212E48",
"0 c #222E48",
"q c #222F4A",
"w c #22304B",
"e c #23314B",
"r c #24314D",
"t c #24334F",
"y c #25334F",
"u c #253350",
"i c #253451",
"p c #263552",
"a c #263554",
"s c #273654",
"d c #273655",
"f c #283757",
"g c #283856",
"h c #283857",
"j c #283858",
"k c #2A3859",
"l c #2A3A5B",
"z c #2B3A5B",
"x c #2B3B5C",
"c c #2B3B5D",
"v c #2B3C5E",
"b c #2C3C5E",
"n c #2C3D5F",
"m c #2C3D60",
"M c #2D3D60",
"N c #2C3E61",
"B c #2E3F62",
"V c #2E3F63",
"C c #2E4063",
"Z c #2F4267",
"A c #304267",
"S c #304368",
"D c #314369",
"F c #314469",
"G c #31446A",
"H c #32446B",
"J c #33466E",
"K c #33476F",
"L c #334770",
"P c #344770",
"I c #344870",
"U c #344871",
"Y c #354973",
"T c #364974",
"R c #364B75",
"E c #374B76",
"W c #374C78",
"Q c #384D78",
"! c #394E7B",
"~ c #3A507E",
/* pixels */
"%%#9n*%*#@2KG7#*:*-%$#*v4$*%+%mLn*%:-**%##rc*%*#O7UG2#=;",
"-**dlw$.;UmGQC:$%::--$2ch-o@cGmTUr*#-,:=%=ifr#.,UmGQn:$%",
"l-$%$-=#*cCdi-*#7Anmw$&$%;%#7Gcf2*%*bmnb=#&$;*@*nZdi-*$6",
"G7*#+#dK7@;;+#X9UmAUl;%#O2Uv*%:##X%GGmGG7*#+%lK,#;*@#XrP",
"m--;%#rw;%#@$O*GGAAK7*:*@;j,*####+fKVAKm-*:%%w7;%###O-GA",
"h-%%%#%#@@@--,mZmAGA2%%%$##$@X*:=iAmAGKr=%%%##%#O#--7mnA",
"r4,=*&#@O*wirZGmGmCl77;**#@@#,rrbPmGAnAe7,-*%#@O*rirAAmK",
":-**;*#@%73:URUKGlZr-=&;-$#@;t-dQKKGbnm:-&*;*#@%w2,QUIKA",
"#&%####%:2=1hdiirni#$%$$%@%*2;;rhiprbn-#%%%###%:,-2lhiyi",
"%*%%%++%*:,;;--;77%$*%&%##%*=7:;---,9*#&%%&%#@%*:,;---;7",
"&%**o*65;*f9-;,;5*%&%%*%#%%%%7f:;,:,,%&&%*%#+*=&*h7-:::,",
"*&&#=mKVG2*ui,::,*$*&&%#$&#$:*wl2;:,;%&*%&#O:nnl7-hr,:;,",
"&$++bKVAKr**72:75***&$%&@@@#*;$;9,27=&**%##:UZnKA-*72:r2",
"+&*6bGGGZ;;;%%22%@&+o*#%9n:%#%*@@;6-$%$o%%&AGZAKh;-%*,,%",
"9unTKGGKd;-2,-$%#@O*,@;mWTl7w*w2;*$%#+#,:=rmmZGG7*7w:%%@",
"GrfklbmVr,4wir;**:5Hm#7Unlh,:*nIn,*&;,rZunKmGGnmw,3hw-**",
"r*f5:,,A:+:ri:=%&rQV7;%:7,==##,lu-*#2f9-nTKKGlnc;:77;;#*",
"2;25:5w*@+&:=%##,5q=&-*:6;##%$=-*%+*7;;:lmnbhll*@%:-%##;",
"-,;::7,;*%XXX#%+#&&#%#+*=#::$+Xoo#O%*-,;:;;:,yw##oXX##@#",
"7;:::;,i*.*97%@&&&&%%+#:*+u6O+,6:@%**=iw-::;,77*X*73%#*%",
"y7,;,,&X%rzQQm*==*=&*%,Kl%@O:dG~U5%*;;:ru,:::*o*ulW~l*--",
":,;373% =~PmGr,@*q76,%;=,:X.n!mGz7*#9r:,r2:4r% ;~KmA9:#*",
"v2*:*&2r-*7:*%@-GKVQf*#@#;r2*,7=%#@uKVGn:%-4;,w**w:*%@;G",
"G,:-#@CT7#**OX+mKVDPr;;%X7Tl*$*@+.6TAAKV:;-#%ZC7@*&OX@ZK",
"l*%==#;-&%X#%%7GmZGG6%**%&*&%OO%%-mAmGKf=%=%#**%#o$%%rGZ",
"y,;%@#@@+@*r2nImGAGn5,*$%#@#+%9r7KmAAGGq,;%#%##@#;r,ZKcG",
"w:;;;%#@@:i7mUGGGlml,:=;*$#O*i7rKGAKmzVq:--;%#@@3i7ZKGGG",
"*%%%*&##-7-:GGAmnAm:%%$&&$#%,,*hKAAnmAr*%%%*%$#-7-,GGAmc",
"$&%%%##*-2-,2,,,7u=+&&%%%##%-::,5,:7r7##*%%%##*;,;:2,,29",
"*%&*##%*%;f-=;;:5*$*&%*&O#;:*w5*;;;,,%%*%%*##%*%-i;-;;:2",
"&&&%@%&#**7l2:,;,=$&%%*@@rZmviiy::::;%%*%*%#%%@*-wc2:,;,",
"*&$#$#@+*:&:i7;,7*%**%#OrUCZUr;i7::7:&**%$####@*:%:r2;,2",
"$$&%%--#@%*+%:2r;&*%@%@2GAAAKr*-:;r7*&&#$*&%-*@@%*@%:2y;",
"+$%*fQm27%;:#&-*@@@#;*7CmAAGn2;*%*-#@#+@$%*dWZ9,%;,#%;%@",
"m;+KQmGrr;6Gr4%%*%-7hiAAmGZml27:,-%%*#-Z-@PWlCUK-7Gr,%%*",
"G,*,f76:;@-nUr:**77,,TUUKClAr*7mc2;%,nUZ2#4LZZUd;,cUi:%*",
":;*%65%*%@*77-&$;7:;2hiiiinr%+;r2*#%4vv;-,;7d92*#*27-%#;",
"@*%*5-%*##@#@#$+*;,:----;72#@@##+#@#-:*@#uf=-%###@$+##@*",
"%%O#&+;r-O%*&@@###-h7-:::,7:#+**#O###&##$##*o,r*+%*%+#$@",
"%%+7z&**%#7KG7#-:*%;lr::::=&%*mPv*%,-*&$%+7n%**##wKG2#-:",
";%*iir% ;QZKQZ:@$,2**94,49@XcUZWUr*#;73*%*iiw$ :QAKQm:#%",
"m-%%#=-#*fvii-%%7UmG9#%24=$#2Zdu2*%*bGmn-#%#-=#=hnrr;%%9",
"G7=###dU6O;-O@orUmmKc;%$+,Kc*$;#Oo%KGmGG9=#+&lG2@;*@@ofU",
"n;-;*#79;%#@#o-LAZGK9*;*+;d:*#@##+kLZZPb-*;&@72;&##@o;KA",
"d;&$$@#%##@;;2mmAAGA2*&&$##$+o*,-kCmmGKu=&&%##%#+#;;7mmA",
"r42-*%#@o*riiGGmGmml74-*%$++#4divUvGGbVr2,=*%#@o-ifiGGmG",
":-%*;*#@%72:KTULAlZr-*%;-$+@;r=dQKLKmmm;=&*;*##%7,,UUUKZ",
"#%%$%##%:,=4hliiivr$%%$#$#$*2;;ucdirln=+&%$$##%:,-7hhiii",
"*%%&%##**:2----;5,$$&%&&#$&**9;;---,7*#*&%&%##**:,;--*:7",
"%%*%#$%%%*hw-:::4*&*%&*%O&$&&2d:;:::,%&&%*%#$&%&*h9-:,:2",
"*%&##%%+-:;dd,;;,*#**%%O%&##:=4c7;:,;%&**%#@%%#*:;hi,::,",
"*%%*$##+#;%#72:w,**&%$%&O%#O*=#-7:2w-&&*$$*$##+#-&%,,:9,",
"o#*#:ni**#*#+%2:&+&+X*%%uG:*%%*+@-7-$$$X%*#:Au*&#*%o%2:%",
"2*#rKTIri-:h--*%%%O=,O;GPKbr9*r,;*%%$+$2*#uTUGir-,f;;%%%",
"U2%AAil72*,KGr-**,7Am#5Klfk::*nKn,*&:,iT,@AApz77*7UGr;**",
"r,*%77--*O*yv,=$&iQm7;%:9,**%#,kr-*%,GR9,*%25=-*+*wc,*%*"
};
