/* XPM */
static char *result[] = {
/* columns rows colors chars-per-pixel */
"56 56 35 1 ",
"  c #010202",
". c #030608",
"X c #060A0E",
"o c #070B11",
"O c #0A0E15",
"+ c #0B0F18",
"@ c #0A1017",
"# c #0D121C",
"$ c #0F1521",
"% c #101623",
"& c #111826",
"* c #141C2B",
"= c #161F30",
"- c #172032",
"; c #192235",
": c #1B253A",
"> c #1D283E",
", c #1E2A42",
"< c #202D46",
"1 c #212F49",
"2 c #24314D",
"3 c #263553",
"4 c #283756",
"5 c #283857",
"6 c #2A3B5C",
"7 c #2D3E62",
"8 c #2F4165",
"9 c #304267",
"0 c #31446B",
"q c #344770",
"w c #354973",
"e c #374C78",
"r c #394E7A",
"t c #3A507D",
"y c #3B5280",
/* pixels */
"%%#16*$*#O,q0,#-;==#$#*6<$*%#%806*%:-=*$%#26*%*#@,q9>#-;",
"-**362$.;q88e8:#%::;-%,65;oO608wq2*#-:;=%=342%.:q80e6:%%",
"6-$%#-=#-6843-&#,8681$&#%:%#,045>*%*6866-#%#;*#*6833;*#1",
"0,=###4q,O;;+#X2e88q6;&#O>q6&&;##O%00800<*##%60,#;=@#X2q",
"7--;%#22;%##$o*0888q<&:*@;5>*###$X509906-*:$%2,;%###O=09",
"4-$%%#%##OO-->7788q8,&%%$##$#o&:-3979003*%%%##$#@#-=,878",
"2,>-*%#+o*2338070885<<;=&$#o#,336q609691<>-*%#@O*2420970",
":-**;*#+%,,:qeqq8682-=%;-$@#;3*3tqq0767:-**;*#@%2>>wwq09",
"#%%$$##%;,=<4432372$$%$$$#%*>;;2633266-#%%$###$:>-,54323",
"*%%%%+o**:>=-=-;<,%#*%*%##&*-,:;---:1-#&*%%$##%*:>;---:<",
"%%**o*1<=*41-:::,*%*%%*$#%%%&<4:;::>>%&&%**@+*-%*51-:::,",
"**%#=7070>*33>::>*#**%$#$%#%:*26,:::;%&*%%#o:7761;32::;>",
"&$++6q7903**<,:<,*&*%$%%@O@@*-$;<:,1-%**%$#:q8808-*>,:1,",
"+&*<70009;;;$*,,%$&+o*$%18;&#%*@#;,;$%$X$%%808805;-&*>>%",
"136w09004;=,>;%$#+O*;#;8ew6<1*2,;-%%#+#,:-2888001-,2:%##",
"024567772><13<;**:<08#,w666>:&806:*&;>28360708671:<52-*=",
"2*3<;>>8:+:23:-$*3w9,;%:1>--##>63-*#>41=6e000666;:<<;;$&",
",-<<:<1*@#%:=%$#;,1=%-*:,;##$$=-*$+*,;;:6767466*O&:-&##:",
"->;:><::*$XXX@#@+&&$$$#*-#:;$+Xoo###*;>::;;:>31##ooX##@#",
"1;:::;>3*.*<<&#&&*%$###:*#3,+O><;#$**-4,-::;,,<*X*<>$#&&",
"2<>;:>&X&26et6*==*=%*$:05*@O:30tw,*--;;23>;>>*o*26rt6*--",
":>:,<<% =tq692:#*2<2>$;->;X.6t806,%#14:,2,>,2% ;y0881;#*",
"6,*;*%>2-*1:&&+-900w6*###;2<*>>-%##30887:&;,;,1--1:&&O;0",
"9>:-##8w2#&*OX+7097q3;;$X<q6*$*@+.,w8808>;*#$78,#*&OX#80",
"6-%==#=*%#X#%%208800<%**%&*&%OO%%-888806=%*%$=&%#X#&&208",
"2>;%#%##+#-2,6069906<>*$$$+#+%<2,q888802>;&$$##@#;2,8069",
"2>;;;%#@@:3,8q800675>:=;*$#O*3<2q0008682:;;;%#@@,3<8q909",
"&%$%&%##;,-:0088688;%%$&&$#%>:=3q888692%&$%&$$#;,->09986",
"$*%%%##*->;><>><<3=+&&%%%##%-:;>,,>,3,#$&%%%##&;>;:,,>,1",
"*%&&#$%*%;3;=;-:<*$&&%*&+#;;*2,-;;;>>$%*%&%$$$*%-3;;:;:,",
"&%*%@%%#*-<6<;:;>=%&%%*@@2886332>;>>;%&&%&%#$%#*=15,:>;>",
"*&%##+#@*:%:2<;><*%**$#O2q88q2;3,>;,:%&*&$#$##@*:%:2,;><",
"$$%%%*-#+%*O%>,2;%&$O$#>088802=-;;1,&&&#$&$%-=@+%*O&>,2;",
"+%%*4r7<,%;:#%-*O$#$;-,8778q7,;***-$@#+#$&*5r8,>%;>#%-&#",
"7:#0r7922-,03,%%&&-,538880885,,;:-%&&$-8-@qe68wq;,02>%$&",
"9>*>32<:;#-7q2:*-,,,>wwq09583=,76,;%>7w8,#,w88w3;>6w3:&*",
";:*%,<%*%#*,1-%#;,>-,3333372$#;2,*#%,67--,;,5,,*#&,1-%#;",
"+*$*<-%%####@###*;,>----;,,#+###o$@$-:*@$34--%@$##$O##@*",
"#$+#&O:3=@%*%@####;5,;>>;>,:##&*$o$##&$$##$*o:3&O%*%O###",
"%&+<6&%-##<q0<#-;*%;52:;>:;%#*7q6*%>-&%%$+,6&&=$$1q0,#-:",
";%*342%.-t80t8:#&,,=*,,,,,@X6w8eq2*#;,,=$=33,$.:e8qr6:#%",
"8-%%#*-#*4632;*#,079,$%,,=$$,742,=$*7777=$$$;=#=5632-*%<",
"8<-###50,#-*o#X2w77q7;%$$,q6*%;#+o&q9790,=#+&68,#;*+@X4e",
"6--;&#<1;&###o-0898q,*;=+;3:*####o6q7907-=;$$,,;####o;08",
"4;%%%####@@;;,887909,=$$$##$+o*:;48770q3;$$$#$$#o#:;,878",
"3,,-*%##o*3348069776,,;=$$#o#,436q799672,,=*$#+o-3430870",
":*&*;%##%,,:qeqq9672;=$;=$+#;3=4rqq0777;=&=;&$#$<>>wqq08",
"#&%$%##%:,->4432363$$$$$$#$*,;;1533347=#&$$$#$$;,-,44433",
"*&%%%##**>,---*;,,$$*%%%$#***,;;---,,*#**$%$##**>,----;,",
"&%*%#$%$%*42-;>:,-$*%%*%#%$$*,4:;>:>>%*%$**#$%%%*42-:::,",
"*%%##%%#-;;34,:;>*#**%%#$$$$:=,6,::::$$*&%##%$#*:;53>;:>",
"*%%*###@#;%#,,;2,**%%%$%+$++*=$;,:,2=%**%$&$#$+#-%$,>:2,",
"o#*#:73**#*$o%,:%#%+o*%%29:*$$*++;,*#%#o$*#:82*%#*$O%>:$",
">*#2qe023;:4;;*%$$+=:+;9ww711*3,;-$$$+$,*#3qw033;>4;;*$$",
"w,%8036,,*>q02-**,,07#,w544::*606>=*;,4w:$8936<,*,002-**",
"2>**,,-;*o*26>-$*4e7,;%:1:==#$:43-*$,0w1:**,,*=*O-26>-$*"
};
