/* XPM */
static char *da21562d2ef4440ecce77c5a377f8bd59h8ODs4iTFd6sqL4[] = {
/* columns rows colors chars-per-pixel */
"56 56 156 2 ",
"   c #27160C",
".  c #29170B",
"X  c #2C190D",
"o  c #331D0D",
"O  c #391F0F",
"+  c #2E1C12",
"@  c #331E11",
"#  c #391F10",
"$  c #3E2106",
"%  c #3B210C",
"&  c #342216",
"*  c #3D2414",
"=  c #352419",
"-  c #3A261A",
";  c #3D2A1E",
":  c #3E2C22",
">  c #4A2606",
",  c #42250B",
"<  c #47290E",
"1  c #4D2A0B",
"2  c #522E0B",
"3  c #56310C",
"4  c #59320D",
"5  c #432615",
"6  c #4D2711",
"7  c #452816",
"8  c #4A2A16",
"9  c #442B1B",
"0  c #4B2E1B",
"q  c #532D15",
"w  c #522E19",
"e  c #592F1A",
"r  c #49301F",
"t  c #573016",
"y  c #5C3115",
"u  c #54301A",
"i  c #5A321C",
"p  c #63360E",
"a  c #69360F",
"s  c #66390E",
"d  c #623412",
"f  c #6A3710",
"g  c #653912",
"h  c #6B3C15",
"j  c #61351B",
"k  c #653A1D",
"l  c #6C3D1B",
"z  c #723E1C",
"x  c #442E20",
"c  c #433227",
"v  c #4B3222",
"b  c #463329",
"n  c #4B372A",
"m  c #4E392D",
"M  c #523624",
"N  c #5D3923",
"B  c #543B2D",
"V  c #593F2F",
"C  c #4E3C33",
"Z  c #593F30",
"A  c #643B22",
"S  c #6A3E22",
"D  c #743E22",
"F  c #783F22",
"G  c #6C421D",
"H  c #71401B",
"J  c #574235",
"K  c #5D4536",
"L  c #554238",
"P  c #5A463A",
"I  c #5F4A3E",
"U  c #6D4522",
"Y  c #62402B",
"T  c #734223",
"R  c #7A4325",
"E  c #744925",
"W  c #734E26",
"Q  c #754328",
"!  c #744629",
"~  c #77462A",
"^  c #794529",
"/  c #7B4529",
"(  c #78452A",
")  c #7D4629",
"_  c #7F452B",
"`  c #7D472C",
"'  c #754C2D",
"]  c #78482B",
"[  c #79492D",
"{  c #7A492E",
"}  c #7A4A2E",
"|  c #7B4A2E",
" . c #7E4A2D",
".. c #77532F",
"X. c #604636",
"o. c #6C4A35",
"O. c #61493B",
"+. c #694E3E",
"@. c #764A30",
"#. c #7C4F33",
"$. c #775330",
"%. c #7F5535",
"&. c #7E5836",
"*. c #7E5C37",
"=. c #77523C",
"-. c #664F42",
";. c #655043",
":. c #6A5244",
">. c #6B5549",
",. c #6F584A",
"<. c #755645",
"1. c #755947",
"2. c #705648",
"3. c #805235",
"4. c #815439",
"5. c #81543A",
"6. c #815A3B",
"7. c #83583D",
"8. c #885A3F",
"9. c #81603E",
"0. c #855A41",
"q. c #865B41",
"w. c #865C42",
"e. c #875C42",
"r. c #8A5E45",
"t. c #856443",
"y. c #866443",
"u. c #856244",
"i. c #866344",
"p. c #8B6348",
"a. c #8F6750",
"s. c #8F6F54",
"d. c #926A53",
"f. c #906C50",
"g. c #906C53",
"h. c #917254",
"j. c #907156",
"k. c #96715B",
"l. c #98755D",
"z. c #967A5F",
"x. c #997561",
"c. c #9A7762",
"v. c #9B7862",
"b. c #9C7D63",
"n. c #9C7964",
"m. c #9A7C65",
"M. c #9B7F66",
"N. c #9D8066",
"B. c #A4816E",
"V. c #A48571",
"C. c #A38974",
"Z. c #A78876",
"A. c #A88B7A",
"S. c #A98C79",
"D. c #AA907C",
"F. c #AC917F",
/* pixels */
"_ _ _ `  ._ _ R T F z F F F F F F F D D F D D D D D D D D D D D D D D D D D D D D D z D z z D D F ! [ [ Q T D D ",
"_ _ ^ `  .3._ R F R z F F F F F F F D D D D D D D D D D D D D D D D D D D D D z D D D D D z D S Q ^ [ } Q [ D Q ",
"^ ^ } 5.q.q.%.} T l l H F T T T T T Q Q T T T T ! Q Q D T T Q T T T T Q T T T T T T D D T l H E @.5.q.q.5.@.Q Q ",
"] ] 5.a.c.c.s.6.T l h l T T T Q T D Q U T T T T U D Q U T Q D U T Q T T Q U T Q T T T S z h h G 6.s.c.c.d.%.} @.",
"} } q.l.Z.S.m.u.G s s h T T T H T T T T T T T T T T T T T T T T H T T T T T H H T Q T T h d s G t.m.S.Z.x.w.@.@.",
" . .8.z.S.S.m.t.G p s f H H T H z U T H T H H H T H T H G D T D H H T H T H H G D T H G f p p G t.m.D.S.x.w.^ _ ",
"_ _ 3.s.N.N.h.*.G p s f G H H H z G H H z H G H H H H H H H G h H H H H G H H H z H H H f p p G *.h.b.b.f.5.T T ",
"H G E 6.9.t.6.W G p p s h h G H h h h h h h h h h h h h h h h h G h h h h h G G h h h h f s p G W 6.t.t.&.E z G ",
"h h g G z U l g g 4 p p 4 s 4 4 4 4 G 4 G 4 g 4 p p 4 s s 4 G 4 4 G 4 G 4 4 4 s 4 4 G 4 4 p 4 p G G G G k h g g ",
"p d 3 3 3 3 3 4 4 4 3 3 3 3 3 1 2 2 2 3 1 2 3 2 1 3 2 1 2 2 2 2 2 3 2 2 2 3 2 2 2 2 2 3 4 4 4 y 3 3 3 3 4 4 y 4 ",
"q 2 1 1 > > > > 1 2 8 1 $ $ $ % $ , $ $ , , % $ $ % $ $ $ $ , $ $ $ $ % > $ $ $ $ $ $ $ 1 8 6 2 2 > > > 1 1 q 6 ",
"6 6 7 , , , 5 6 7 5 * % o % X . X $ o o o % % % % % & % % o % % o % & % $ X o o X $ o % % * , 5 < , , , , , 6 5 ",
"6 5 * 5 * % 5 5 * * & X X + = = & @ + X X X X + + + X X X X + + X X X X X + & = & & + X X @ # 5 5 * 5 % 5 * 5 5 ",
"* * * * # 5 5 * % & X + + = : b c ; & X X . + + & + & & + & + & & + X X + & : : c : = + X X # * * * * * * * 5 * ",
"* # 5 # * * * * * @ . . + : C P J J ; & X & & - - - - - - - ; ; * = & X & ; C L P L : +   X o # * * * * * * 5 * ",
"5 O 5 5 5 * 5 5 * % . . = b P >.;.J v * % - 9 ; r r ; r r ; r ; r ; = % * c L ;.>.I : = X X O * 5 5 5 * 5 * 5 * ",
"5 7 7 7 7 7 7 7 * # X . = c P :.+.K M 9 7 9 r v v v v v v v v v v v 9 9 9 v X.+.:.P b = X o O 5 5 8 5 5 5 5 5 5 ",
"7 7 8 8 8 8 7 7 * # o X @ : B K K J M r 9 r v v M M v v M M M M M v 0 9 r M J O.K B ; @ X O * 7 8 0 8 7 5 5 5 5 ",
"w q 0 w 8 w 8 8 * O o X + = 9 v M M r r r r v v v v v v v v v v v v v v v v v v v ; & @ o O 5 0 e e 0 8 x 5 5 5 ",
"w e w w w w 8 8 5 & @ X X X O & * 9 r r r r r r r r v r v r r v 9 r r 9 9 0 9 9 & & X X o & 8 w w e e 0 8 6 5 7 ",
"e i w w u w 0 7 5 # @ . . X X o % * 7 9 9 9 9 9 9 9 9 9 ; 9 9 9 9 9 9 9 9 5 * O o . . X o * 8 u w t u w 8 7 7 7 ",
"i i u u u w q 8 5 % @ + . X X o % * 5 ; * 9 7 ; * * * 7 * * * * * 9 9 7 * 5 % O o X . . o * 8 w i i u 0 8 5 7 7 ",
"i e u w w w 8 6 5 & @ X . X X O & % * * * * * * * * * * * - * * * * 5 ; * * * & o X . X o * 7 w i t u w 8 5 7 7 ",
"N N u u w w 0 8 5 # @ X . X o # * * * * * 9 * * * * * * * 7 * * * * * * * 9 * * O o o X @ * 7 w u u q 0 8 7 5 5 ",
"e e u w w w 8 8 * # o + X X # & * 9 9 9 9 9 7 9 9 9 9 * 9 * 9 ; 9 9 9 9 9 5 9 * & # + X @ 5 7 w u i u 0 8 5 7 7 ",
"N i w i u w 0 8 5 O o X + + = 9 9 9 0 9 9 9 9 9 9 r 9 9 9 r 0 9 9 9 9 9 9 9 0 9 9 @ @ X X O 7 w u u u 0 8 5 7 7 ",
"e i w w w w 8 8 5 O X X + = x v B M v v r r r v r r r v v r r r v r r 9 v v M B v x = + o # 7 q i t u w 8 7 7 7 ",
"e i w w w w 8 8 5 O X X @ : m K X.J v r 9 9 r v v v v v v v v v v v 9 9 0 n Z K K m : @ o # 5 w u u u 0 7 5 5 7 ",
"e N u u w w 0 8 * o X X = c P :.:.X.M 9 9 9 r v v v v v v v v v v r 9 9 9 v X.+.-.P c = X o 5 w u u w 8 8 7 7 7 ",
"e i w u e w 8 8 5 o X X = n I ,.2.X.n 9 * * 9 v v v v v v v v v v r 7 * 9 M O.2.,.I b = o * 5 q i e e w 8 7 5 7 ",
"i i u w w w 0 8 * O X . & c K :.:.K M 9 7 9 r v M v v v v v v v v 9 9 9 9 M X.:.:.P c - X o 7 w u u e 8 8 7 7 7 ",
"i i u w w w 8 8 * # o X @ : m K K V v 9 9 9 v v v v v v v v v v v r 9 9 9 v B K J m : @ o # 5 w u i w 0 8 5 7 7 ",
"i i e w w w 8 8 5 # X X @ @ 9 c v v v v 9 0 v v v v v v v v v v v v 9 r 9 v v v v ; & o o * 6 w u i u 0 8 5 5 7 ",
"i i w w w e 8 8 5 # @ X X X # * 5 9 0 x x v v 0 9 x v 9 r 9 9 r r r v 0 0 9 9 7 & @ X X o & 8 0 u u u 0 8 7 7 5 ",
"i i w w w w 8 8 5 * @ + X . X o % & 7 9 9 9 9 9 9 9 9 9 9 9 9 9 9 9 9 9 9 9 & % o . . . o * 8 w t i w w 8 7 7 7 ",
"i N u w w w 0 7 * & @ X . X X X O % - 7 9 * 9 * 5 * * * 5 ; * * * * 7 ; * 5 * O o X . X @ * 7 w u t w 0 8 7 7 7 ",
"i i w w w w w 8 5 & @ X X X X o % * * * * * * * * * * * * * * * * * * ; * * * % o X X X o * 8 w u u u w 0 5 7 5 ",
"i i w w w w 8 7 5 # @ X X X o O & - 5 * * 5 * * * * * * * * * * ; * * 5 * 5 * - # X X + @ & 8 w i u w 0 8 5 7 5 ",
"i i e w i w 0 8 5 O @ X X X @ * 9 7 9 9 9 9 9 ; 9 9 9 9 9 9 * 9 7 9 9 9 9 9 7 7 & # X X @ * 7 w w i e w 0 5 5 8 ",
"i i w w w w 0 8 5 # X X + @ - 5 9 0 9 r 9 9 9 9 9 9 9 9 9 r 9 r 9 9 9 9 9 r 9 9 9 & + X o % 7 w e w w 8 8 5 5 5 ",
"e e w w w w 8 7 * O X . X & ; v v B v x 9 v x v r 9 v 9 c 0 v 9 v x x x x v M n v : = + . # 5 0 w t w 8 8 7 5 5 ",
"w e w w w w 8 7 & o .   . : m J K B v 9 9 9 x v v c v v v v v v v x 9 9 9 n B K J n : + . # 5 0 u u w 0 7 5 * 5 ",
"y q w q w 8 8 5 * o . . = : L ;.-.K v 9 * 9 9 v v v v v v c v v x x 9 * 9 M K -.-.L x + X o , 8 u u w 8 7 5 5 5 ",
"e q w w w w e 5 5 O X X = n -.,.2.O.B 9 ; 7 r v v v v v v 9 M v v 0 9 * 9 M X.2.,.I n = @ O 6 w u y u 8 8 7 5 7 ",
"e e e e y q q q 7 7 * * 9 B -.1.2.o.M 0 8 8 u M M M i M u M M M M u 8 7 8 M o.<.1.-.B 9 * 5 q e i e q q q 0 8 0 ",
"e j j d y y y e e w w w u Y @.<.=.o.A u u u N N N N N i N N A N N N i u N A o.=.=.o.Y u w w i j j d d y y y i i ",
"k A S l k k k k k k j j A S ! @.! ! S A k k A S U A U S A S S S S k A k A S ! ' @.! U A k k k l l S k k k k A A ",
"D D Q } $.3. .! Q z S U D Q U Q Q T T U D T D U D T T T T T Q T Q U D T U D U Q T Q T T S D l Q !  .#.#.} ^ T T ",
"^ ! 3.r.d.d.r.5.T H H H R R D H T T T R R E R T T R T T R T T T T T T R T R T T H T T R H z H T &.p.s.f.p.3.^ ^ ",
"` ` e.k.b.Z.l.e.W h h z R T T F z T T R T R R T R T R T T R R T T R R R R T T H D F R T z h h E u.c.B.B.k.q. . .",
"@. .e.n.F.F.B.u.G h s f H T T D D T T T T T T T T T T T H T T T T T T T T T T H T T T D h a s U t.N.F.S.n.r.} } ",
"^ ! 7.k.B.C.z.9.G p p s l H z U l H l l G z l G l G l l H G z G l z G l l G z l l T l l d p p G 6.v.C.C.k.5.! ! ",
"G G  .t.h.h.t.$.G 4 p s h G h h l k h h l h h h l h l h h h h l h l h l l h h h f h h h s 4 4 h $.u.h.g.u.' U G ",
"l l G W ....$.G p p 4 s p g g f d g g f g g g g f d g g g g g d d g g d g g g g a a g d p p p g G W $.$.E G h h ",
"z z h H z G h h a a a a f f a a f a p p a p d s d a d p d s s s s d f p p p d d p p p p p p p p g G k G h g g g ",
"z z h h H H h h a s a a a f a f a a s a d p d s p a p s s d d s s a p p a a p s p p p p p p p p 4 G G k h h j g "
};
