/* XPM */
static char *be4b098f4f3b4acbbde33ab7b23e2f0ab6JEEcnIiOlWRhVA_0[] = {
/* columns rows colors chars-per-pixel */
"21 33 32 1 ",
"  c None",
". c #613835",
"X c #8A583D",
"o c #452933",
"O c #E39C76",
"+ c #402018",
"@ c #C7795A",
"# c #A65A46",
"$ c #FFC79C",
"% c #FFD1A4",
"& c #58594C",
"* c #808274",
"= c #2B2B26",
"- c #2E1A23",
"; c #3F3F37",
": c #418079",
"> c #6EC09B",
", c #245257",
"< c #172D3B",
"1 c #815646",
"2 c #63403D",
"3 c #BD8259",
"4 c #244B57",
"5 c #B76A50",
"6 c #543538",
"7 c #EBC678",
"8 c black",
"9 c black",
"0 c black",
"q c black",
"w c black",
"e c black",
/* pixels */
"            ..XX     ",
"   .      XXX.XXX    ",
"   .  ...XXXXXXXX    ",
"   ooo..XXXXXX.XX    ",
"   oo..XXXXXXX.X     ",
"   ..XXXX..X..X      ",
"   o..XXOOOOOO       ",
"   ..X.O++++O++      ",
"   oo..O@@@##@       ",
"   $O.@O++O##+       ",
"   $$o@O%%%##%  &*   ",
"    o@@%%%%%%%=&&&   ",
"     OO%%%OO%%-;&    ",
"      OO%%%%%---     ",
"   :>:::,###<1-      ",
" >>>:>:::,,<211      ",
">>>>>:::>>>2331   OOO",
">>>>>::>>>2333> 45OOO",
":::>>::>>2333>>:455OO",
">>>> ::22333>>>:4:5OO",
" O%%%o11333>>>>::4:  ",
" %%%O--111>>>>::::   ",
"  %%%--:::::::       ",
"    -- 66--37-       ",
"       1111131       ",
"       6613333       ",
"    o- 66613333      ",
"   oo-111663333      ",
"   o 61111  1331     ",
"      616    333     ",
"             1--     ",
"              -66    ",
"              66     "
};
