/* XPM */
static char *_bdbc3438f174ee784b87ddd848f2c63JoiO6KU1xzyXJlE9[] = {
/* columns rows colors chars-per-pixel */
"56 56 221 2 ",
"   c None",
".  c #190716",
"X  c #27131E",
"o  c #2F1619",
"O  c #2A1822",
"+  c #341D25",
"@  c #341E29",
"#  c #29242B",
"$  c #33232A",
"%  c #3B232B",
"&  c #392027",
"*  c #262C35",
"=  c #332A34",
"-  c #2C3334",
";  c #47241B",
":  c #411E24",
">  c #43252A",
",  c #46282C",
"<  c #582E22",
"1  c #573529",
"2  c #452933",
"3  c #4B2E34",
"4  c #412733",
"5  c #4D3236",
"6  c #473539",
"7  c #533235",
"8  c #5C3534",
"9  c #553639",
"0  c #5C3B3C",
"q  c #5D3B37",
"w  c #502F34",
"e  c #633628",
"r  c #603734",
"t  c #633A35",
"y  c #693E36",
"u  c #623E3B",
"i  c #6B3E3A",
"p  c #763E35",
"a  c #48443E",
"s  c #57463F",
"d  c #6D4136",
"f  c #66423C",
"g  c #6C443D",
"h  c #714339",
"j  c #76493B",
"k  c #7B4C3B",
"l  c #774736",
"z  c #7F503A",
"x  c #73402F",
"c  c #3A3E42",
"v  c #433C40",
"b  c #3C474A",
"n  c #27545B",
"m  c #3C5557",
"M  c #3F4D53",
"N  c #1E5A64",
"B  c #245B62",
"V  c #2A5F64",
"C  c #2A6768",
"Z  c #336464",
"A  c #386C6A",
"S  c #3D7B76",
"D  c #387A77",
"F  c #317471",
"G  c #4A4B49",
"H  c #554543",
"J  c #5A5B4E",
"K  c #565749",
"L  c #4F5650",
"P  c #684A42",
"I  c #754C42",
"U  c #7B4D41",
"Y  c #724A46",
"T  c #7C5244",
"R  c #7B5A4A",
"E  c #6F5951",
"W  c #64685B",
"Q  c #7B6A57",
"!  c #64604D",
"~  c #426965",
"^  c #566D66",
"/  c #45756E",
"(  c #58766C",
")  c #427C75",
"_  c #577D71",
"`  c #667666",
"'  c #757669",
"]  c #814B3A",
"[  c #9D4A3A",
"{  c #84543C",
"}  c #89563D",
"|  c #8B593D",
" . c #94563E",
".. c #864D41",
"X. c #835546",
"o. c #845946",
"O. c #8C5A46",
"+. c #895C49",
"@. c #8A5644",
"#. c #975A46",
"$. c #A65B46",
"%. c #84614F",
"&. c #92624A",
"*. c #9A6549",
"=. c #9C684C",
"-. c #856456",
";. c #98695A",
":. c #8B765E",
">. c #92735C",
",. c #A2654A",
"<. c #A86A4D",
"1. c #B1684D",
"2. c #A36E51",
"3. c #A96851",
"4. c #B56B52",
"5. c #B86A51",
"6. c #A67152",
"7. c #AB7453",
"8. c #AF7558",
"9. c #B37A56",
"0. c #B37A5A",
"q. c #BA7958",
"w. c #967765",
"e. c #AA7863",
"r. c #BB7E62",
"t. c #CA795A",
"y. c #CA7658",
"u. c #C17F63",
"i. c #39827C",
"p. c #42827A",
"a. c #46897E",
"s. c #548479",
"d. c #658D79",
"f. c #6F8170",
"g. c #BE8359",
"h. c #BF8057",
"j. c #848678",
"k. c #A98B69",
"l. c #B7816A",
"z. c #AB9168",
"x. c #BA8C73",
"c. c #A89277",
"v. c #B49378",
"b. c #A08B76",
"n. c #B3A570",
"m. c #C38157",
"M. c #C3855A",
"N. c #C6885C",
"B. c #CA8558",
"V. c #D5815F",
"C. c #C88768",
"Z. c #D48463",
"A. c #D88A68",
"S. c #D5926E",
"D. c #CA9779",
"F. c #D89573",
"G. c #C6916F",
"H. c #E49C76",
"J. c #E89E77",
"K. c #ED966D",
"L. c #D9A165",
"P. c #D2A678",
"I. c #E9A47C",
"U. c #E7A079",
"Y. c #F4A77D",
"T. c #488C80",
"R. c #4E9383",
"E. c #499788",
"W. c #559D89",
"Q. c #529986",
"!. c #769F80",
"~. c #4FA78E",
"^. c #52A58D",
"/. c #5AA48C",
"(. c #5CAA8F",
"). c #5CAC91",
"_. c #53AF94",
"`. c #67AA8D",
"'. c #61AE91",
"]. c #6DBE9A",
"[. c #65B595",
"{. c #70BD98",
"}. c #6DC19C",
"|. c #66C29E",
" X c #71C59D",
".X c #7DC69E",
"XX c #6AC8A2",
"oX c #71CCA4",
"OX c #76D5A9",
"+X c #B19E84",
"@X c #8AAC86",
"#X c #84AB86",
"$X c #97B795",
"%X c #8AB58D",
"&X c #BFAA83",
"*X c #CAA886",
"=X c #D3AB87",
"-X c #D5B28D",
";X c #DEB792",
":X c #ECAC84",
">X c #E3A884",
",X c #E6B68C",
"<X c #F6B88D",
"1X c #FABD92",
"2X c #F0AE86",
"3X c #89C69F",
"4X c #90C59D",
"5X c #B6CFA4",
"6X c #EBC79D",
"7X c #F6C499",
"8X c #FDCB9E",
"9X c #F9C699",
"0X c #FFCEA1",
"qX c #E8D5A8",
"wX c #FFD3A5",
"eX c #FFD7A9",
"rX c #FFDAAB",
"tX c #FAD5A5",
"yX c #E4CEA1",
"uX c #FFE4B3",
"iX c #FFE0AF",
/* pixels */
"                                                              t 8 y { | |                                       ",
"                                                            z h r y ] | | |                                     ",
"                              t t                     | } | | { d f { | | | |                                   ",
"                              t r         r t 8 r j | | | | | } { k } | | | |                                   ",
"                              r 7       7 r r r f k | | | | } | | } { { | | |                                   ",
"                              3 3 2 4 2 7 r r y k } | | } | | | | { h l } | }                                   ",
"                              2 2 4 2 3 7 r i k } | | | | | | | | { t d } | |                                   ",
"                              2 2 2 w 8 t y k | | } } { } } } } } k y g }                                       ",
"                              7 w 7 t j k z } | { l y y l z j d y y l }                                         ",
"                              8 8 q d { } } } O.*.O.U I @.#.O.j Y U ]                                           ",
"                              3 w r y d { } { ,.N.C.C.r.C.C.C.r.C.2.                                            ",
"                              w 7 8 y d l { *.7.0.0.0.0.0.0.S.U.S.*.                                            ",
"                              8 8 8 i k y X.q.8.l < 8 e < e 7.S.=.< o                                           ",
"                              w > , r h r Y C.A.} x l x e e #.q.$.e ;                                           ",
"                              v 9 7 8 r r @.C.A.4.,.1.5.5.$.$.$.1. .                                            ",
"                              x.x.e.X.y l 0.S.t.] < ] y.Z.5.$.$.] e                                             ",
"                              0X0X1X8.i ..A.K.r.I 1 T G.F.1.[ #.z 1                                             ",
"                              wXeX8Xe.0 ] Z.H.H.=X*X-X6X>X4.[ 1.G.k.        ! ' j.                              ",
"                                1X*X;.Y #.u.I.9XrXuXuXrX1XD.y.F.8X-XK     J J ` '                               ",
"                                  Y Y 5.t.A.<XrXrXeXwXwX0X7X7XtXiX=Xs * K J J J J                               ",
"                                    p A.K.J.9XrXeXtX0X<X:X<X9XiXuX=XH # a K J K                                 ",
"                                      x.J.:X1X0XeXrX0X<X>X:X9XeXyXk.5 O - G K                                   ",
"                                        v.I.2X1XwXrXwX8X9X9XrX9Xk.2 O X $ a                                     ",
"                                        ' c.x.c.+X*X>X:X2X,X*Xb.P + X X O                                       ",
"                              R.R.[.(.a.p.s.s.S ~ E 3.1.4.3.E b H q & X                                         ",
"                           X].'.Q.Q././.a.i.F F B M H s 0 6 = = P X.d 8                                         ",
"                        ].}. X X[.R.W.'.Q.i.S p.p.F Z Z N * 2 P X.o.@.}                                         ",
"                     X}.}.].]. X}.'./.Q.a.S p.a.(.(.^.~.S G g <.9.2.O.O.          J.U.H.H.H.                    ",
"                     X X X X X}. X X(.p.S p.a.(.}.OXoX`.f.R ,.M.B.9.:.Q         V.J.U.J.H.H.                    ",
"                     X].}.{.}.}. X}./.p./ a.(.}. XoX[.` R 6.m.M.m.x.#X/.    G -.t.H.J.H.H.H.                    ",
"                    W.W.Q.Q./.[.}.|.^.p.F a.}.OX X`.` R *.y.B.m.k.@XoX_.i.N G &.y.t.F.H.H.H.                    ",
"                    a.a.a.i.a.(. X.X`.a.D a.`.}.`.` T ,.m.m.m.z.@XoXXX).i.B L %.5.y.Z.H.U.J.                    ",
"                    /./.~.^.~._.3X  $XT.D ) ( W W %.,.q.B.m.z.j.OXXXXX(.S B B ^ ;.5.Z.J.J.H.                    ",
"                    ].].%X4X4X3X5X    ( A ^ P i U 2.N.B.M.n.j.OXXXoX X(.) Z V C ^ w.C.H.J.H.                    ",
"                        &X,X6XqXqXeXv.H H E T @.<.h.M.m.z.j.}.|.}. X Xd.p.S F B B _ c.                          ",
"                        ,X1XtXeXeX9Xe., > y ] *.<.1.7.z.%X XoX}. X X_.~.p.) ) Z C D                             ",
"                        0X0XwXeXwX2X;.& . % P %.%.o.Q d. X X|.].}.[.E.i.p.p.p.) D                               ",
"                          eXwXwXeX8Xl.& . = L _ ( ^ _ R.~.~.E.E.~.a.T.                                          ",
"                            wXwXtX;X>.@ . = L S / A Z Z / _ d.s.s.Z                                             ",
"                                  -.2 O X   v G G c - * a >.P.n.! #                                             ",
"                                    . X     u g y 8 > > e =.L.L.o.+                                             ",
"                                            T U U U k I T +.7.g.=.U                                             ",
"                                            P g P T &.6.7.2.6.g.9.7.                                            ",
"                                            0 7 7 u X.6.g.g.g.g.h.h.                                            ",
"                                  2 % @     0 3 5 9 f +.6.g.M.g.g.M.M.                                          ",
"                                2 2 @ @ q   Y u 0 9 9 0 +.9.N.M.g.g.g.9.                                        ",
"                              2 3 2 @ & s @.X.R T f 5 5 I 8.N.g.g.g.g.7.                                        ",
"                              2 2 2 % , f o.+.o.o.T f 5 I 7.9.6.8.N.N.=.                                        ",
"                              2 2     9 g T o.X.T o.I         &.6.N.N.7.&.                                      ",
"                                        0 g T I P I             6.N.N.g.g.                                      ",
"                                          0 I I 0               =.6.=.*.=.                                      ",
"                                                                %.T 7 > 3                                       ",
"                                                                  f O X $ ,                                     ",
"                                                                    % @ 3 5 7                                   ",
"                                                                    5 5 9 0                                     ",
"                                                                    5 7 9                                       "
};
