/* XPM */
static char *d87f01a1a5194a1fab9aedf92cce89145mWEViH6sJEnq57I[] = {
/* columns rows colors chars-per-pixel */
"56 56 231 2 ",
"   c #3C0101",
".  c #440303",
"X  c #4B0303",
"o  c #4F0807",
"O  c #440B0B",
"+  c #4D0C0C",
"@  c #530202",
"#  c #5B0101",
"$  c #500807",
"%  c #510B0B",
"&  c #5C0C0A",
"*  c #5E0F10",
"=  c #4D1314",
"-  c #4D181A",
";  c #521516",
":  c #5E1212",
">  c #581718",
",  c #541B1B",
"<  c #5C1B1B",
"1  c #630101",
"2  c #6C0101",
"3  c #620D0C",
"4  c #6D0C0C",
"5  c #730101",
"6  c #7C0101",
"7  c #740D0D",
"8  c #7B0B0B",
"9  c #64100D",
"0  c #7A130E",
"q  c #6F0F10",
"w  c #641413",
"e  c #6C1413",
"r  c #661917",
"t  c #631E1E",
"y  c #6D1A1A",
"u  c #731313",
"i  c #7C1312",
"p  c #7D1917",
"a  c #721A1A",
"s  c #6F201D",
"d  c #561E21",
"f  c #5C1E20",
"g  c #631F20",
"h  c #5C2223",
"j  c #592526",
"k  c #5E262B",
"l  c #632323",
"z  c #6C2525",
"x  c #62262B",
"c  c #68272A",
"v  c #642A2B",
"b  c #6B2C2D",
"n  c #772526",
"m  c #732C2D",
"M  c #7A2E2E",
"N  c #762E31",
"B  c #7A2F30",
"V  c #673232",
"C  c #6D3131",
"Z  c #723333",
"A  c #7B3232",
"S  c #793A3A",
"D  c #6C4444",
"F  c #6E4848",
"G  c #724444",
"H  c #7B4D4C",
"J  c #775050",
"K  c #830101",
"L  c #8C0101",
"P  c #840B0B",
"I  c #8A0C0C",
"U  c #940101",
"Y  c #9C0101",
"T  c #940B0B",
"R  c #9D0D0D",
"E  c #910F10",
"W  c #841514",
"Q  c #8B1515",
"!  c #841915",
"~  c #891817",
"^  c #851919",
"/  c #8B191A",
"(  c #941313",
")  c #9A1313",
"_  c #9A1A15",
"`  c #911B1B",
"'  c #9B1D1A",
"]  c #A30403",
"[  c #AA0504",
"{  c #A20A0A",
"}  c #A80908",
"|  c #B80A06",
" . c #B70D09",
".. c #AA120F",
"X. c #B8130E",
"o. c #A61917",
"O. c #A41E19",
"+. c #BA1A16",
"@. c #B31E1C",
"#. c #86201C",
"$. c #A4211B",
"%. c #AB211C",
"&. c #B6221C",
"*. c #BC231B",
"=. c #B21F20",
"-. c #852726",
";. c #8E2222",
":. c #932323",
">. c #992827",
",. c #952C2B",
"<. c #833232",
"1. c #8D3435",
"2. c #943333",
"3. c #9A3333",
"4. c #9C3B3B",
"5. c #A72924",
"6. c #B82A26",
"7. c #AE302F",
"8. c #A93A37",
"9. c #BB3634",
"0. c #C3140D",
"q. c #CB150B",
"w. c #C6180F",
"e. c #C8180E",
"r. c #C31A15",
"t. c #C61D14",
"y. c #CA1D13",
"u. c #D01E13",
"i. c #C92117",
"p. c #C62218",
"a. c #C3241C",
"s. c #CA241B",
"d. c #CD281E",
"f. c #D2261B",
"g. c #D2291F",
"h. c #C62926",
"j. c #CC2C23",
"k. c #D42D24",
"l. c #D92B20",
"z. c #C6322B",
"x. c #CE352E",
"c. c #D13127",
"v. c #D2352C",
"b. c #C83733",
"n. c #D23A32",
"m. c #D63B36",
"M. c #BA423E",
"N. c #D4423D",
"B. c #D9443F",
"V. c #884747",
"C. c #954747",
"Z. c #9D4242",
"A. c #895555",
"S. c #985857",
"D. c #A44343",
"F. c #AA4846",
"G. c #A34949",
"H. c #AB4C4C",
"J. c #BA4B48",
"K. c #A55353",
"L. c #AC5757",
"P. c #AB5957",
"I. c #AD5B5B",
"U. c #B15D5D",
"Y. c #B85A58",
"T. c #AB615E",
"R. c #BC5F60",
"E. c #956A69",
"W. c #947373",
"Q. c #947979",
"!. c #A46463",
"~. c #B56868",
"^. c #BA6C6C",
"/. c #BC7373",
"(. c #BB7A7A",
"). c #C94242",
"_. c #C84846",
"`. c #C24F4F",
"'. c #D64641",
"]. c #DC4844",
"[. c #D74E4B",
"{. c #CB514D",
"}. c #D7534B",
"|. c #DA514E",
" X c #CE5353",
".X c #CE5855",
"XX c #D25656",
"oX c #D75754",
"OX c #D35A5A",
"+X c #DA5B5B",
"@X c #E35451",
"#X c #DB625C",
"$X c #C86967",
"%X c #D56C68",
"&X c #C47676",
"*X c #C37C7C",
"=X c #D97874",
"-X c #E2847F",
";X c #BC8483",
":X c #B99393",
">X c #BB9B9B",
",X c #BDA3A3",
"<X c #C48181",
"1X c #C98686",
"2X c #CB8C8C",
"3X c #D78D8D",
"4X c #CD9494",
"5X c #CF9C9D",
"6X c #D39B9B",
"7X c #D89999",
"8X c #E58A85",
"9X c #E39896",
"0X c #DBA5A5",
"qX c #D6A8A8",
"wX c #DCABAB",
"eX c #DAB0AF",
"rX c #DCB3B3",
"tX c #D9B8B8",
"yX c #E6A4A2",
"uX c #ECACAA",
"iX c #E2B4B4",
"pX c #E9B7B7",
"aX c #E5BCBC",
"sX c #EABCBC",
"dX c #E7BFC0",
"fX c #DEC0C0",
"gX c #E6C1C1",
"hX c #EBC4C4",
"jX c #ECCCCC",
"kX c #EFCDCD",
"lX c #F2D5D5",
/* pixels */
"XX X X[.N.x.h.j.p.p.s.d.j.d.d.a.&.$.' ` Q ^ Q ^ / / / / Q / / / / / / / / Q P P K K K K K 6 i y z b C Z A M M M ",
"XX.XOX[.N.x.j.p.i.i.p.s.s.d.s.*.&.O._ Q W W W W Q W W W Q Q Q Q ~ ~ / ~ Q W P P K 6 6 6 6 6 q y z v V Z S A A A ",
"OXOXOX|.N.x.d.p.w.i.i.i.f.i.i.p.@.o.( ! W i W W W P W W W W ^ ^ ^ ~ ^ W W P 8 6 6 6 6 K 5 5 7 r l v V Z A A A A ",
"OXOX.X|.N.x.j.p.i.t.s.s.i.d.d.p.@.o._ Q W i W W W W W Q Q W ^ Q ~ ^ ~ Q I W P 6 6 K 6 6 6 8 q y c b V Z S A A A ",
"OXXXOX|.N.x.h.d.p.p.s.d.s.d.d.r.&.o._ ~ ! ^ W W ^ Q Q ^ Q Q ^ / / / ^ ^ Q W P P K K 6 K 6 6 7 y c b C Z A A <.A ",
"OXOXOX|.'.n.j.d.s.s.d.d.g.k.d.h.&.$.' ` ^ ^ ^ ^ ^ ^ / / ^ ^ / ^ ^ / ;.^ ~ Q P I K K K K 6 6 u a z b Z Z A A A A ",
"OXOXOXoX'.n.c.d.s.d.d.g.g.g.j.a.*.$._ / ^ ^ ^ ~ / / / ^ / ^ ^ / ^ ;./ / ~ Q I P L K K K 6 8 u y z C Z S A A A <.",
"OXOXXXoX'.n.j.d.s.s.s.d.g.s.t.h.&.$._ ` ~ ^ ^ ^ / / / Q / / / / / #./ / ~ W I K K K K K 6 6 7 a z b C S A <.A A ",
" X X X[.m.x.j.s.t.j.t.j.f.u.r.r.+.o.) ` ~ ~ Q / Q / / ( / / ( / ` / ` ` / I P P K 6 6 K K P 7 e z b b C B N N N ",
").).).m.n.j.h.y.t.t.y.y.r.q.0.0.X...o.) ( ( ( ( ( ( ( ( ( ( ( ( ( ( ) ( ( I 8 6 5 5 6 K K K 8 u t c v b b m N N ",
"9.b.9.h.h.r.r.r.0.0.0.0.0.| | | [ } { R R ) R R R R R R R R R R { ..o.R ) I 6 5 2 2 5 K L L P 7 r < h j c b b v ",
"=.=.=.+.+.X. . . . . . .| | | [ [ [ ] ] R ] Y R { { { { { ] { { { { ] ] Y P 6 1 # # 2 6 L L P 8 9 ; , d k v v x ",
"R { R } } } ] ] ] ] } ] } [ [ ] [ ] Y ] Y Y Y Y ] Y Y Y Y Y Y Y Y ] ] ] Y K 5 & $ # 2 6 L L K 2 & + - - j j k k ",
"K K K L L U L L L L L U T ) ) ) R T U L L L L L L L L L L L L L U U U L K 6 3 : : > w 7 P K 5 1 @ . O = d k k k ",
"2 2 4 2 5 2 5 2 2 5 5 8 W ;.,.:.:.Q 6 6 2 2 5 5 5 5 5 5 5 5 5 5 5 5 6 5 5 2 w h k v z a 7 5 1 # . . O = d x x x ",
"% @ @ # # # # # @ # # 9 n <.C.C.1.n 4 1 # # # # # # # # 1 # # # # # # # # & h V D D C z w # @ .     O ; f c c c ",
"o . X X X X X X . . o , C V.A.A.A.S l % . . X X X @ X X @ X @ X X X X X $ < V G J J G v < X .     . + > l m z m ",
"= + + + o o o . . o o s Z V.S.E.A.V.C h = - - , , , , , , , , , - - ; = h v G J A.H G V , o       O = t z n m M ",
"< t t r r : 9 & & & 9 s <.C.S.!.E.S.H G D D D F F G F D D F G G F F D D D G V.A.A.V.S b > . O   O = , l n M M n ",
"A <.<.-.n #.p 0 0 0 0 ^ ,.4.F.P.U.!.E.W.W.Q.Q.Q.W.W.W.E.E.W.W.W.Q.Q.Q.W.E.E.S.A.V.1.M s w @ o + = , l z n M M M ",
"D.D.D.8.5.5.%._ _ _ _ O.%.6.9.J.Y.&X;X:X>X,X,X,X>X>X>X:X>X>X>X>X,X,X5X,X:X(.~.C.,.^ p e 4 1 & : < l c b M M M M ",
"`.`.`._.N.z.6.*.*.*.*.+.+.r.*.N..X=X7XuXtXfXtXeXeXwXtXtXtXtXeXqXtXrXfXfXrX4X^.D.;.P 6 8 5 5 7 r g c b Z B A M A ",
"OXOXoX|.B.v.c.f.s.s.i.u.q.q.y.v.}.-XyXsXhXdXrXwX0XrXpXhXhXsXrX0XwXiXgXhXfX5X&XD.Q 6 6 6 6 6 i a z b C Z Z A B A ",
"+X+X+X@X'.N.l.g.g.f.f.u.q.q.u.c.oX-XuXhXhXrX6X2X2X0XpXhXhXiX0X4X3X6XpXhXhXwX*XF.` K 6 6 K 6 i a z b Z Z A B A A ",
"+X+X+X@X].m.g.l.f.f.f.u.q.q.u.c.@X8XuXsXiX6X<X^.&X1X0XpXaX0X2X&X$X-X5XiXaX0X*XH.` 6 6 6 6 6 0 a m C C Z A A A A ",
"OXOXOX|.m.m.k.j.d.i.i.i.q.q.i.n.+X8XuXpXwX2X^.P.U.&X7XiXiX7X&XU.L.^.2XqXpX0X<XH.` K 6 6 6 6 i a z b C Z A A A A ",
"XX XXX[.N.x.j.s.s.s.s.i.q.e.i.n.#X8XuXpXqX2X~.P.U.&X5XrXrX5X&X~.I.^.2X0XiX0X1XH.` K 6 5 6 6 7 a z b C Z A A A A ",
"XX X X[.'.x.j.s.p.s.p.w.w.w.i.n.#X8XuXgXrX5X;X^./.1X0XaXaX0X2X^.^.<X6XrXaX0X<XK.` K 6 6 6 6 7 a s b C C A A A A ",
" X.X X|.m.x.h.s.s.p.s.i.w.w.p.N.#X8XyXdXgXrX5X2X2X6XrXgXdXrX6X4X2X6XiXdXgX0X*XH.` K 6 5 6 6 7 y z b C Z A B A N ",
" X X X[.'.x.j.h.p.s.p.p.w.w.p.x.XX8XyXaXgXgXtXrXeXiXaXgXgXaXiXeXrXaXhXhXaX7X/.D./ K 6 6 6 6 u a s b b Z A B B A ",
" X X X[.N.x.j.s.p.p.p.i.w.w.p.j._.%X3X0XtXjXjXjXhXgXtXaXiXaXgXhXjXlXjXgX0X1XU.3.I K 6 6 6 5 7 y c b b Z A B N B ",
".X X X[.N.n.h.s.s.p.s.i.e.w.t.a.b.{.$X2XrXgXlXlXjXsXwX6X0XwXsXjXlXlXjXwX4X~.D.:.P 6 5 6 6 6 0 y c b C Z A B A B ",
" X X X[.N.v.j.s.s.s.s.p.y.e.r.t.6.9.J.$X2XrXjXjXjXwX4X-X<X4XwXhXlXjXiX4X^.G.,.Q K 6 6 6 6 6 u a z v C Z B B N B ",
" X X X[.N.b.j.h.s.r.s.s.s.s.p.a.&.%.3.H./.4XtXdXrX5X(.P.U./.6XrXdXiX6X/.H.,.Q P K 6 K 6 6 6 7 y z b C Z A B M M ",
"OXOX.X[.'.v.j.h.s.s.s.j.c.v.x.z.6.5.>.3.K.(.4X5X6X*XP.Z.D.I.&X6X0X6X(.L.3./ P W P I P K 6 8 u a z b C Z A B M B ",
"OXOXOX|.N.n.k.s.p.s.s.v.N.[.oX{.9.7.:.:.2.P./.;X(.!.Z.2.>.Z.!.(.<X(.U.Z.;.Q ~ ;.:.:.;.Q P 6 7 u z b Z Z A B B B ",
"OXOXOXoX'.n.v.s.y.i.d.n.}.#X=X=X.XF.,.;.;.4.G.~.P.G.,.;.;.2.D.I.I.K.Z.,./ / :.3.4.4.3.:.W 6 7 e z b C Z A B m B ",
"OXOXOX[.'.x.j.y.t.y.d.N.#X-X8X3X*XL.4.;.^ ;.2.4.4.3.:./ / ;.3.4.Z.3.:.;.#.;.4.C.K.K.4.,.Q 8 7 e s b C Z A M M B ",
"{.{.{.[.N.v.s.y.e.w.d.N.#X-X9X9X1X$XD.:.Q I Q ` ` :.` / Q ` ` :.` ` ` E ` ,.D.K.!.P.G.,.Q P 5 e r v C Z A M M B ",
").).).m.x.h.r.r.0.w.i.n.oX=X3X3X<XR.8.' ( L L T T T T ( ( T ( T T T T T ` ,.Z.S.S.S.Z.,.Q P 6 4 r t c b N M M M ",
"9.9.z.h.h.r.0. .| 0.r.h.N.OX%X%X$XJ.7.o.Y U U U T Y Y R R R Y U U Y Y Y R :.2.V.V.C.1.:.( L 6 7 3 < g c m M M M ",
"@.=.@.+.+.X. .| [ |  .+.6.9.M.J.9.7.@.{ Y Y U Y Y Y Y ] Y Y Y Y Y ] ] Y R ( -.M N N -./ T L K 2 3 ; , l z m m B ",
"{ R R { { ] [ ] ] ] ] } ..o.@.O.O.o.{ Y Y Y Y Y Y Y Y Y Y Y Y Y Y ] Y ] U I 7 w > w e 8 I L 6 2 @ + = f z m m N ",
"K K K L L L K L L L L L L L L L L L L L L L L L L L L L L U U L U U U U L 5 1 X . $ # 2 6 K 5 1 @ O + , l m m m ",
"4 2 2 2 2 2 2 2 5 2 2 2 2 2 2 5 5 5 5 6 6 5 6 6 6 5 6 5 6 5 6 5 6 6 K 6 5 1 @ .     X # 2 2 1 @ . . O = f b b C ",
"@ X X @ # # # # # # # # @ @ # # # # # 1 1 1 1 1 1 1 1 1 1 # 1 1 1 1 1 1 # # .       . X # # @ X .   O = f x x v ",
". X X X X X X X X X X X X X . X X X X X @ X X X X o @ X @ @ @ X X o @ @ o .         . . X X . .   . O ; f x x k ",
"+ = + + $ $ o o o o $ o X % o X o % . o o . o o . o o . . O o o . o o . $ . . . . . . . . . . . O O = d f x x v ",
"g g g y r w w 3 3 9 3 3 9 9 9 9 & & % % % + + % % % % % % % + o % % + % % $ $ $ $ @ $ o X X O o O = , < h x x v ",
"<.<.<.,.-.#.^ W ! 0 ! ! ! ! ! p 0 e r 9 9 : : : * * * * * : : * : w : : : 3 3 3 1 # 1 # # # & % , , h l b b v b ",
"D.D.D.8.7.5.$.$.o.o.O.O.o.$.$._ ` ! p u u e e u u u u u u u u u u u u u u q 7 5 5 5 5 2 2 1 3 : < l v b b N m m ",
"`.`.{._.N.z.6.*.*.*.a.+.p.a.*.*.%.$._ ! W ! p ! W ^ ^ W ^ ^ ^ W ^ ^ ^ ^ ^ I 8 P 6 6 6 6 5 8 7 y z v b C A B N N ",
"XXoXoX@XN.n.k.j.u.s.f.k.k.l.k.p.6.O.O.` Q ~ ~ / Q / ` Q ` Q ` / ` / ` / ~ Q I P K K K K K 6 i a z b Z Z A A B B ",
"+X+XoX@X].m.k.g.f.f.f.l.g.l.f.j.r.@.O.` / / / ` ` ` ` ` ` ` ` ` ` ` ` ` ` Q E L L K L K K 8 8 a z C Z Z A A B B ",
"+X+X+X@XB.m.k.g.f.f.k.f.g.l.g.s.h.@.o.` / / / Q ` ` ( ` ` Q ` ` ` ` ` ` ( Q I I L K K L K K i a z C Z Z A B B A ",
"+XOXoX|.B.n.k.g.f.s.s.l.l.g.d.h.*.O.' ` / / Q ` ` / / / / ` / / / ` ` / / Q I P K K K K K 8 u a z b Z Z A <.M M "
};
