/* XPM */
static char *_f8f4ae17447401cc990d9f4eac5af96O5mrOq4UBwvwOIPq[] = {
/* columns rows colors chars-per-pixel */
"13 16 16 1 ",
"  c #3D0505",
". c #5A070E",
"X c #63272C",
"o c #662E2E",
"O c #800000",
"+ c #8B1818",
"@ c #A30000",
"# c #B90E1C",
"$ c #832F2F",
"% c #C92118",
"& c #C9271E",
"* c #917171",
"= c #DC5B5B",
"- c #9E8080",
"; c #B58080",
": c #EBC8C8",
/* pixels */
"#======#=###.",
"=&&&+++++OOo$",
"=&&&+++++OOo$",
"=&&%+++++OOo$",
"@@@@@@@@@ @ X",
"   -     *  $",
"=&&%:::::OOo$",
"=&&%:+:+:OOo$",
"=&&&:::::OOo$",
"=&&&+:+:+OOo$",
"=&&:+++++;Oo$",
"@@@@@@@@@ @ $",
"            X",
"=&&&+++++OOo$",
"=&&&+++++OOo$",
"=&&%+++++OOo$"
};
